<svg width="50" height="50" viewBox="0 0 50 50" fill="none" xmlns="http://www.w3.org/2000/svg">
<path d="M47.9166 39.5833C47.9166 40.6884 47.4777 41.7482 46.6963 42.5296C45.9149 43.311 44.855 43.75 43.75 43.75H6.24998C5.14491 43.75 4.0851 43.311 3.3037 42.5296C2.5223 41.7482 2.08331 40.6884 2.08331 39.5833V16.6667C2.08331 15.5616 2.5223 14.5018 3.3037 13.7204C4.0851 12.939 5.14491 12.5 6.24998 12.5H14.5833L18.75 6.25H31.25L35.4166 12.5H43.75C44.855 12.5 45.9149 12.939 46.6963 13.7204C47.4777 14.5018 47.9166 15.5616 47.9166 16.6667V39.5833Z" stroke="#7E7E82" stroke-width="2" stroke-linecap="round" stroke-linejoin="round"/>
<path d="M25 35.4167C29.6024 35.4167 33.3334 31.6857 33.3334 27.0833C33.3334 22.481 29.6024 18.75 25 18.75C20.3976 18.75 16.6667 22.481 16.6667 27.0833C16.6667 31.6857 20.3976 35.4167 25 35.4167Z" stroke="#7E7E82" stroke-width="2" stroke-linecap="round" stroke-linejoin="round"/>
</svg>
