<svg width="20" height="21" viewBox="0 0 20 21" fill="none" xmlns="http://www.w3.org/2000/svg">
<path d="M13.333 3.83301H14.9997C15.4417 3.83301 15.8656 4.0086 16.1782 4.32116C16.4907 4.63372 16.6663 5.05765 16.6663 5.49967V17.1663C16.6663 17.6084 16.4907 18.0323 16.1782 18.3449C15.8656 18.6574 15.4417 18.833 14.9997 18.833H4.99967C4.55765 18.833 4.13372 18.6574 3.82116 18.3449C3.5086 18.0323 3.33301 17.6084 3.33301 17.1663V5.49967C3.33301 5.05765 3.5086 4.63372 3.82116 4.32116C4.13372 4.0086 4.55765 3.83301 4.99967 3.83301H6.66634" stroke="white" stroke-width="2" stroke-linecap="round" stroke-linejoin="round"/>
<path d="M12.5003 2.16699H7.50033C7.04009 2.16699 6.66699 2.54009 6.66699 3.00033V4.66699C6.66699 5.12723 7.04009 5.50033 7.50033 5.50033H12.5003C12.9606 5.50033 13.3337 5.12723 13.3337 4.66699V3.00033C13.3337 2.54009 12.9606 2.16699 12.5003 2.16699Z" stroke="white" stroke-width="2" stroke-linecap="round" stroke-linejoin="round"/>
</svg>
